<svg width="1100.000000" height="489.000000" viewBox="0 0 1100 489" fill="none" xmlns="http://www.w3.org/2000/svg" xmlns:xlink="http://www.w3.org/1999/xlink">
	<desc>
			Created with Pixso.
	</desc>
	<defs>
		<clipPath id="clip800_6">
			<rect id="ipos.digital" width="800.000000" height="237.000000" transform="translate(150.000000 126.000000)" fill="white" fill-opacity="0"/>
		</clipPath>
	</defs>
	<rect id="Rectangle 1" width="1100.000000" height="489.000000" fill="#FFFFFF" fill-opacity="1.000000"/>
	<g clip-path="url(#clip800_6)">
		<path id="ipos.digital" d="M161.98 171.26C158.5 171.26 155.8 172.41 153.48 174.53C151.16 176.64 150 179.34 150 182.41C150 185.68 151.16 188.38 153.48 190.49C155.8 192.61 158.5 193.57 161.98 193.57C165.08 193.57 167.98 192.61 170.3 190.49C172.62 188.38 173.78 185.68 173.78 182.41C173.78 179.34 172.62 176.64 170.3 174.53C167.98 172.41 165.08 171.26 161.98 171.26ZM170.69 213.38C164.69 212.23 158.7 212.23 152.7 213.38L152.7 290.32C158.7 291.67 164.69 291.67 170.69 290.32L170.69 213.38Z" fill="#FD4249" fill-opacity="1.000000" fill-rule="nonzero"/>
		<path id="ipos.digital" d="M238.15 210.5C226.94 210.5 217.65 214.92 210.5 223.58L209.34 213.38C203.92 212.42 198.7 212.42 193.48 213.38L193.48 321.68C199.48 323.02 205.47 323.02 211.47 321.68L211.47 281.48C218.43 289.36 227.32 293.21 238.15 293.21C249.37 293.21 258.26 289.36 265.22 281.48C271.99 273.59 275.47 263.78 275.47 251.85C275.47 240.12 271.99 230.31 265.22 222.42C258.26 214.54 249.37 210.5 238.15 210.5ZM233.7 277.63C225.2 277.63 217.85 274.36 211.66 267.43L211.66 236.27C217.85 229.54 225.2 226.08 233.7 226.08C240.67 226.08 246.47 228.58 250.91 233.19C255.17 238 257.49 244.16 257.49 251.85C257.49 259.55 255.17 265.89 250.91 270.51C246.47 275.32 240.67 277.63 233.7 277.63Z" fill="#FD4249" fill-opacity="1.000000" fill-rule="nonzero"/>
		<path id="ipos.digital" d="M330.59 210.5C318.41 210.5 308.35 214.54 300.43 222.42C292.3 230.5 288.44 240.31 288.44 251.85C288.44 263.59 292.3 273.4 300.43 281.28C308.35 289.36 318.41 293.21 330.59 293.21C342.78 293.21 352.83 289.36 360.95 281.28C368.88 273.4 372.94 263.59 372.94 251.85C372.94 240.31 368.88 230.5 360.95 222.42C352.83 214.54 342.78 210.5 330.59 210.5ZM330.79 226.08C337.75 226.08 343.36 228.58 348 233.39C352.64 238.2 354.96 244.35 354.96 251.85C354.96 259.55 352.64 265.7 348 270.51C343.36 275.32 337.75 277.63 330.79 277.63C323.82 277.63 318.02 275.32 313.38 270.51C308.74 265.7 306.61 259.55 306.61 251.85C306.61 244.35 308.74 238.2 313.38 233.39C318.02 228.58 323.82 226.08 330.79 226.08Z" fill="#FD4249" fill-opacity="1.000000" fill-rule="nonzero"/>
		<path id="ipos.digital" d="M420.75 244.54C420.17 244.54 419.39 244.16 418.43 243.77C414.17 242.62 411.27 241.47 409.53 240.7C407.79 239.93 406.24 238.97 404.7 237.43C403.15 236.08 402.38 234.35 402.38 232.43C402.38 229.35 403.73 227.04 406.44 225.12C409.14 223.38 412.62 222.42 416.49 222.42C424.03 222.42 432.54 225.5 442.21 231.66C442.98 230.69 443.18 228.58 443.18 225.12C443.18 221.65 442.79 219.35 442.21 217.81C439.31 215.88 435.25 214.15 430.22 212.61C425 211.27 419.97 210.5 414.94 210.5C406.05 210.5 398.7 212.81 392.9 217.04C387.1 221.27 384.39 227.23 384.39 234.73C384.39 241.27 386.52 246.27 390.97 249.74C395.22 253.2 401.79 256.47 410.3 259.16L411.85 259.74C416.49 261.28 419.59 262.24 421.33 263.01C426.16 265.13 428.67 268.01 428.67 271.47C428.67 274.74 427.13 277.24 424.42 278.78C421.52 280.51 418.04 281.28 414.17 281.28C406.05 281.28 396.96 278.21 387.29 272.05C386.52 273.2 386.13 275.32 386.13 278.78C386.13 282.25 386.52 284.55 387.29 285.9C390 288.01 394.06 289.75 399.47 291.09C404.89 292.63 410.11 293.21 415.14 293.21C423.84 293.21 431.19 291.29 437.38 287.05C443.56 282.82 446.66 276.86 446.66 269.16C446.66 262.82 444.34 257.82 440.08 254.16C435.83 250.7 429.25 247.43 420.75 244.54Z" fill="#FD4249" fill-opacity="1.000000" fill-rule="nonzero"/>
		<path id="ipos.digital" d="M468.37 293.21C471.46 293.21 474.36 292.25 476.68 290.13C479 288.01 480.16 285.32 480.16 282.05C480.16 278.98 479 276.28 476.68 274.17C474.36 272.05 471.46 270.9 468.37 270.9C464.89 270.9 462.18 272.05 459.86 274.17C457.54 276.28 456.38 278.98 456.38 282.05C456.38 285.32 457.54 288.01 459.86 290.13C462.18 292.25 464.89 293.21 468.37 293.21Z" fill="#FD4249" fill-opacity="1.000000" fill-rule="nonzero"/>
		<path id="ipos.digital" d="M555.04 222.23C548.08 214.54 539.19 210.5 528.36 210.5C517.14 210.5 508.05 214.54 501.29 222.42C494.32 230.31 491.04 240.12 491.04 251.85C491.04 263.78 494.32 273.59 501.29 281.48C508.05 289.36 517.14 293.21 528.36 293.21C539.77 293.21 549.05 288.98 556.01 280.13L557.36 290.32C562.59 291.48 567.81 291.48 573.03 290.32L573.03 165.29C566.84 164.14 560.84 164.14 555.04 165.29L555.04 222.23ZM555.04 267.43C548.86 274.36 541.51 277.63 533.19 277.63C525.84 277.63 520.04 275.32 515.79 270.51C511.34 265.89 509.21 259.55 509.21 251.85C509.21 244.16 511.34 238 515.79 233.19C520.04 228.58 525.84 226.08 533.19 226.08C541.51 226.08 548.86 229.54 555.04 236.27L555.04 267.43Z" fill="#2D2D2D" fill-opacity="1.000000" fill-rule="nonzero"/>
		<path id="ipos.digital" d="M604.95 171.26C601.47 171.26 598.76 172.41 596.44 174.53C594.12 176.64 592.96 179.34 592.96 182.41C592.96 185.68 594.12 188.38 596.44 190.49C598.76 192.61 601.47 193.57 604.95 193.57C608.05 193.57 610.95 192.61 613.27 190.49C615.59 188.38 616.75 185.68 616.75 182.41C616.75 179.34 615.59 176.64 613.27 174.53C610.95 172.41 608.05 171.26 604.95 171.26ZM613.65 213.38C607.66 212.23 601.66 212.23 595.67 213.38L595.67 290.32C601.66 291.67 607.66 291.67 613.65 290.32L613.65 213.38Z" fill="#2D2D2D" fill-opacity="1.000000" fill-rule="nonzero"/>
		<path id="ipos.digital" d="M670.1 210.5C658.88 210.5 649.79 214.54 643.02 222.23C636.06 230.12 632.77 239.73 632.77 251.28C632.77 262.82 636.06 272.63 643.02 280.32C649.79 288.21 658.88 292.06 670.1 292.06C680.93 292.06 689.82 288.21 696.78 280.32L696.78 288.79C696.78 295.71 694.46 300.9 690.01 304.37C685.37 308.02 679.38 309.75 671.84 309.75C662.94 309.75 654.24 307.06 645.73 301.67C644.96 302.83 644.57 305.14 644.57 308.79C644.57 312.64 644.96 315.14 645.73 316.48C652.69 321.87 662.55 324.56 675.51 324.56C687.69 324.56 697.36 321.29 704.32 314.56C711.29 308.02 714.77 298.98 714.77 287.82L714.77 213.38C709.54 212.23 704.32 212.23 699.1 213.38L697.75 223.58C690.79 214.92 681.51 210.5 670.1 210.5ZM674.93 226.08C683.25 226.08 690.59 229.54 696.78 236.27L696.78 266.28C690.98 273.2 683.63 276.47 674.93 276.47C667.78 276.47 661.97 274.17 657.53 269.55C653.08 264.93 650.95 258.78 650.95 251.28C650.95 243.97 653.08 237.81 657.53 233.19C661.97 228.58 667.78 226.08 674.93 226.08Z" fill="#2D2D2D" fill-opacity="1.000000" fill-rule="nonzero"/>
		<path id="ipos.digital" d="M746.5 171.26C743.02 171.26 740.31 172.41 737.99 174.53C735.67 176.64 734.51 179.34 734.51 182.41C734.51 185.68 735.67 188.38 737.99 190.49C740.31 192.61 743.02 193.57 746.5 193.57C749.59 193.57 752.5 192.61 754.82 190.49C757.14 188.38 758.3 185.68 758.3 182.41C758.3 179.34 757.14 176.64 754.82 174.53C752.5 172.41 749.59 171.26 746.5 171.26ZM755.2 213.38C749.21 212.23 743.21 212.23 737.22 213.38L737.22 290.32C743.21 291.67 749.21 291.67 755.2 290.32L755.2 213.38Z" fill="#2D2D2D" fill-opacity="1.000000" fill-rule="nonzero"/>
		<path id="ipos.digital" d="M827.12 270.32C820.93 275.51 815.32 278.01 810.68 278.01C805.26 278.01 802.56 274.55 802.56 267.43L802.56 228.58L826.15 228.58C827.31 223.58 827.31 218.58 826.15 213.38L802.56 213.38L802.56 188.38C796.37 187.22 790.37 187.22 784.57 188.38L784.57 213.38L772.58 213.38C771.23 218.58 771.23 223.58 772.58 228.58L784.57 228.58L784.57 269.93C784.57 277.63 786.51 283.4 790.37 287.25C794.24 291.29 799.46 293.21 806.23 293.21C814.93 293.21 821.89 290.71 827.12 285.51C827.7 284.17 828.08 281.48 828.08 277.63C828.08 273.78 827.89 271.47 827.12 270.32Z" fill="#2D2D2D" fill-opacity="1.000000" fill-rule="nonzero"/>
		<path id="ipos.digital" d="M877.01 210.5C865.02 210.5 855.54 213.19 848.19 218.19C847.42 219.73 847.03 222.23 847.03 225.89C847.03 229.73 847.42 232.04 848.19 233C856.7 227.81 865.21 225.12 873.53 225.12C887.45 225.12 894.6 231.46 894.6 244.16L894.6 252.43C887.64 246.66 879.13 243.58 869.08 243.58C860.57 243.58 853.61 245.89 848.39 250.31C842.97 254.93 840.46 260.89 840.46 268.4C840.46 276.09 842.97 282.05 848.39 286.48C853.61 291.09 860.18 293.21 868.3 293.21C873.72 293.21 878.75 292.25 883.77 289.94C888.61 287.63 892.67 284.94 895.76 281.48L896.92 290.32C902.15 291.48 907.37 291.48 912.59 290.32L912.59 245.7C912.59 222.23 900.6 210.5 877.01 210.5ZM873.53 254.93C877.39 254.93 881.45 255.89 885.52 257.62C889.58 259.35 892.67 261.09 894.6 262.82L894.6 271.47C892.48 273.4 889.38 275.32 885.52 277.05C881.45 278.78 877.39 279.55 873.33 279.55C868.69 279.55 865.02 278.4 862.31 276.09C859.6 273.78 858.44 270.7 858.44 267.24C858.44 263.78 859.6 260.7 862.31 258.39C865.02 256.08 868.69 254.93 873.53 254.93Z" fill="#2D2D2D" fill-opacity="1.000000" fill-rule="nonzero"/>
		<path id="ipos.digital" d="M950 165.29C944 164.14 938.01 164.14 932.01 165.29L932.01 290.32C938.01 291.67 944 291.67 950 290.32L950 165.29Z" fill="#2D2D2D" fill-opacity="1.000000" fill-rule="nonzero"/>
	</g>
</svg>
